<svg width="96" height="96" viewBox="0 0 96 96" fill="none" xmlns="http://www.w3.org/2000/svg" role="img" aria-label="Globe icon">
  <circle cx="48" cy="48" r="42" fill="#FFF8E8" stroke="#F2D7A6" stroke-width="2"/>
  <circle cx="48" cy="48" r="27" fill="#EFF6FF" stroke="#2563EB" stroke-width="4"/>
  <path d="M21 48h54M48 21c9 8 13 17 13 27S57 67 48 75M48 21c-9 8-13 17-13 27s4 19 13 27" stroke="#2563EB" stroke-width="4" stroke-linecap="round"/>
  <path d="M28 31c6 4 13 6 20 6s14-2 20-6M28 65c6-4 13-6 20-6s14 2 20 6" stroke="#2563EB" stroke-width="3" stroke-linecap="round" opacity=".75"/>
  <path d="M32 76h32" stroke="#F97316" stroke-width="4" stroke-linecap="round"/>
</svg>